<svg width="128" height="128" viewBox="0 0 128 128" fill="none" xmlns="http://www.w3.org/2000/svg">
  <!-- Simetrični Cloud (Pozadina) -->
  <path d="M30 80C15 80 15 55 30 50C30 25 60 20 75 35C100 30 110 60 90 75C100 95 75 110 60 100C40 110 25 100 30 80Z" fill="#0078D4" fill-opacity="0.9"/>
  
  <!-- Centrirani Katanac (Autentifikacija) -->
  <!-- Telo katanca -->
  <rect x="49" y="60" width="30" height="25" rx="3" fill="white"/>
  <!-- Luk katanca -->
  <path d="M54 60V54C54 48.4772 58.4772 44 64 44C69.5228 44 74 48.4772 74 54V60" stroke="white" stroke-width="4" stroke-linecap="round"/>
  <!-- Otvor za ključ -->
  <circle cx="64" cy="72.5" r="3" fill="#0078D4"/>
  <path d="M64 75V78" stroke="#0078D4" stroke-width="2" stroke-linecap="round"/>
</svg>
